<svg width="16" height="16" viewBox="0 0 16 16" fill="none" xmlns="http://www.w3.org/2000/svg">
<path d="M8 6.42148L15.904 3.24295L15.968 3.22148H16L8 9.53674e-07L0 3.22148H0.0533333L0.096 3.24295L8 6.42148ZM8 5.28322L2.86933 3.22148L8 1.15973L13.1307 3.22148L8 5.28322ZM7.73333 16V6.97987L7.744 6.91544V6.89396L5.33333 5.92752V10.1906C5.33337 10.3816 5.28611 10.5696 5.19583 10.7376C5.10554 10.9056 4.97508 11.0483 4.81625 11.1527C4.65742 11.2572 4.47522 11.3201 4.28614 11.3359C4.09706 11.3517 3.90707 11.3197 3.73333 11.243C2.82667 10.8456 2.208 9.9651 2.144 8.97718L2.13333 8.78389V4.63893L0 3.77987V12.8859L7.73333 16ZM8.26667 16L16 12.8859V3.77987L8.256 6.89396L8.26667 6.93691V16ZM10.4 11.8121V8.5906L13.6 7.24832V10.4698L10.4 11.8121ZM4.26667 8.85906C4.56533 8.85906 4.8 8.62282 4.8 8.32215C4.8 8.02148 4.56533 7.78524 4.26667 7.78524C3.968 7.78524 3.73333 8.02148 3.73333 8.32215C3.73333 8.62282 3.968 8.85906 4.26667 8.85906Z" fill="#FEFEFE"/>
</svg>
